HIERARCHY
ROOT Hips
{
  OFFSET 2.197 24.456 -277.586
  CHANNELS 6 Xposition Yposition Zposition Zrotation Xrotation Yrotation
  JOINT LeftUpLeg
  {
    OFFSET 7.670 -8.044 2.510
    CHANNELS 6 Xposition Yposition Zposition Zrotation Xrotation Yrotation
    JOINT LeftLeg
    {
      OFFSET -0.000 -49.745 0.000
      CHANNELS 6 Xposition Yposition Zposition Zrotation Xrotation Yrotation
      JOINT LeftFoot
      {
        OFFSET 0.000 -41.797 -0.000
        CHANNELS 6 Xposition Yposition Zposition Zrotation Xrotation Yrotation
        End Site
        {
          OFFSET 0.000 -9.441 5.451
        }
      }
    }
  }
  JOINT RightUpLeg
  {
    OFFSET -7.739 -7.522 1.715
    CHANNELS 6 Xposition Yposition Zposition Zrotation Xrotation Yrotation
    JOINT RightLeg
    {
      OFFSET 0.000 -49.455 0.000
      CHANNELS 6 Xposition Yposition Zposition Zrotation Xrotation Yrotation
      JOINT RightFoot
      {
        OFFSET 0.000 -41.302 -0.000
        CHANNELS 6 Xposition Yposition Zposition Zrotation Xrotation Yrotation
        End Site
        {
          OFFSET 0.000 -9.936 5.736
        }
      }
    }
  }
  JOINT Spine
  {
    OFFSET 0.000 5.833 -5.833
    CHANNELS 6 Xposition Yposition Zposition Zrotation Xrotation Yrotation
    JOINT LeftShoulder
    {
      OFFSET -0.000 37.329 0.000
      CHANNELS 6 Xposition Yposition Zposition Zrotation Xrotation Yrotation
      JOINT LeftArm
      {
        OFFSET 23.041 0.000 -0.000
        CHANNELS 6 Xposition Yposition Zposition Zrotation Xrotation Yrotation
        JOINT LeftForeArm
        {
          OFFSET 24.511 0.000 0.000
          CHANNELS 6 Xposition Yposition Zposition Zrotation Xrotation Yrotation
          JOINT LeftHand
          {
            OFFSET 28.542 0.000 -0.000
            CHANNELS 6 Xposition Yposition Zposition Zrotation Xrotation Yrotation
            JOINT LeftHandThumb1
            {
            OFFSET 4.970 -0.620 3.390
            CHANNELS 6 Xposition Yposition Zposition Zrotation Xrotation Yrotation
              JOINT LeftHandThumb2
              {
              OFFSET 2.150 -0.000 0.000
              CHANNELS 6 Xposition Yposition Zposition Zrotation Xrotation Yrotation
                JOINT LeftHandThumb3
                {
                OFFSET 2.200 -0.000 0.000
                CHANNELS 6 Xposition Yposition Zposition Zrotation Xrotation Yrotation
                  JOINT LeftHandThumb4
                  {
                  OFFSET 1.700 -0.000 0.000
                  CHANNELS 6 Xposition Yposition Zposition Zrotation Xrotation Yrotation
                  }
                }
              }
            }
            JOINT LeftHandIndex1
            {
            OFFSET 8.730 0.680 2.070
            CHANNELS 6 Xposition Yposition Zposition Zrotation Xrotation Yrotation
              JOINT LeftHandIndex2
              {
              OFFSET 2.670 -0.000 0.000
              CHANNELS 6 Xposition Yposition Zposition Zrotation Xrotation Yrotation
                JOINT LeftHandIndex3
                {
                OFFSET 2.130 -0.000 0.000
                CHANNELS 6 Xposition Yposition Zposition Zrotation Xrotation Yrotation
                  JOINT LeftHandIndex4
                  {
                  OFFSET 1.800 -0.000 0.000
                  CHANNELS 6 Xposition Yposition Zposition Zrotation Xrotation Yrotation
                  }
                }
              }
            }
            JOINT LeftHandMiddle1
            {
            OFFSET 9.220 0.670 0.550
            CHANNELS 6 Xposition Yposition Zposition Zrotation Xrotation Yrotation
              JOINT LeftHandMiddle2
              {
              OFFSET 2.660 -0.000 0.000
              CHANNELS 6 Xposition Yposition Zposition Zrotation Xrotation Yrotation
                JOINT LeftHandMiddle3
                {
                OFFSET 2.280 -0.000 0.000
                CHANNELS 6 Xposition Yposition Zposition Zrotation Xrotation Yrotation
                  JOINT LeftHandMiddle4
                  {
                  OFFSET 1.500 -0.000 0.000
                  CHANNELS 6 Xposition Yposition Zposition Zrotation Xrotation Yrotation
                  }
                }
              }
            }
            JOINT LeftHandRing1
            {
            OFFSET 9.250 0.670 -1.130
            CHANNELS 6 Xposition Yposition Zposition Zrotation Xrotation Yrotation
              JOINT LeftHandRing2
              {
              OFFSET 2.470 -0.000 0.000
              CHANNELS 6 Xposition Yposition Zposition Zrotation Xrotation Yrotation
                JOINT LeftHandRing3
                {
                OFFSET 2.210 -0.000 0.000
                CHANNELS 6 Xposition Yposition Zposition Zrotation Xrotation Yrotation
                  JOINT LeftHandRing4
                  {
                  OFFSET 1.800 -0.000 0.000
                  CHANNELS 6 Xposition Yposition Zposition Zrotation Xrotation Yrotation
                  }
                }
              }
            }
            JOINT LeftHandPinky1
            {
            OFFSET 9.350 0.660 -2.720
            CHANNELS 6 Xposition Yposition Zposition Zrotation Xrotation Yrotation
              JOINT LeftHandPinky2
              {
              OFFSET 1.630 -0.000 0.000
              CHANNELS 6 Xposition Yposition Zposition Zrotation Xrotation Yrotation
                JOINT LeftHandPinky3
                {
                OFFSET 1.710 -0.000 0.000
                CHANNELS 6 Xposition Yposition Zposition Zrotation Xrotation Yrotation
                  JOINT LeftHandPinky4
                  {
                  OFFSET 1.800 -0.000 0.000
                  CHANNELS 6 Xposition Yposition Zposition Zrotation Xrotation Yrotation
                  }
                }
              }
            }
          }
        }
      }
    }
    JOINT RightShoulder
    {
      OFFSET -0.000 37.329 0.000
      CHANNELS 6 Xposition Yposition Zposition Zrotation Xrotation Yrotation
      JOINT RightArm
      {
        OFFSET -21.686 0.000 -0.000
        CHANNELS 6 Xposition Yposition Zposition Zrotation Xrotation Yrotation
        JOINT RightForeArm
        {
          OFFSET -26.456 0.000 0.000
          CHANNELS 6 Xposition Yposition Zposition Zrotation Xrotation Yrotation
          JOINT RightHand
          {
            OFFSET -27.199 0.000 -0.000
            CHANNELS 6 Xposition Yposition Zposition Zrotation Xrotation Yrotation
            JOINT RightHandThumb1
            {
            OFFSET -4.970 -0.620 3.390
            CHANNELS 6 Xposition Yposition Zposition Zrotation Xrotation Yrotation
              JOINT RightHandThumb2
              {
              OFFSET -2.150 0.000 0.000
              CHANNELS 6 Xposition Yposition Zposition Zrotation Xrotation Yrotation
                JOINT RightHandThumb3
                {
                OFFSET -2.200 0.000 0.000
                CHANNELS 6 Xposition Yposition Zposition Zrotation Xrotation Yrotation
                  JOINT RightHandThumb4
                  {
                  OFFSET -1.700 0.000 0.000
                  CHANNELS 6 Xposition Yposition Zposition Zrotation Xrotation Yrotation
                  }
                }
              }
            }
            JOINT RightHandIndex1
            {
            OFFSET -8.730 0.680 2.070
            CHANNELS 6 Xposition Yposition Zposition Zrotation Xrotation Yrotation
              JOINT RightHandIndex2
              {
              OFFSET -2.670 0.000 0.000
              CHANNELS 6 Xposition Yposition Zposition Zrotation Xrotation Yrotation
                JOINT RightHandIndex3
                {
                OFFSET -2.130 0.000 0.000
                CHANNELS 6 Xposition Yposition Zposition Zrotation Xrotation Yrotation
                  JOINT RightHandIndex4
                  {
                  OFFSET -1.800 0.000 0.000
                  CHANNELS 6 Xposition Yposition Zposition Zrotation Xrotation Yrotation
                  }
                }
              }
            }
            JOINT RightHandMiddle1
            {
            OFFSET -9.220 0.670 0.550
            CHANNELS 6 Xposition Yposition Zposition Zrotation Xrotation Yrotation
              JOINT RightHandMiddle2
              {
              OFFSET -2.660 0.000 0.000
              CHANNELS 6 Xposition Yposition Zposition Zrotation Xrotation Yrotation
                JOINT RightHandMiddle3
                {
                OFFSET -2.280 0.000 0.000
                CHANNELS 6 Xposition Yposition Zposition Zrotation Xrotation Yrotation
                  JOINT RightHandMiddle4
                  {
                  OFFSET -1.500 0.000 0.000
                  CHANNELS 6 Xposition Yposition Zposition Zrotation Xrotation Yrotation
                  }
                }
              }
            }
            JOINT RightHandRing1
            {
            OFFSET -9.250 0.670 -1.130
            CHANNELS 6 Xposition Yposition Zposition Zrotation Xrotation Yrotation
              JOINT RightHandRing2
              {
              OFFSET -2.470 0.000 0.000
              CHANNELS 6 Xposition Yposition Zposition Zrotation Xrotation Yrotation
                JOINT RightHandRing3
                {
                OFFSET -2.210 0.000 0.000
                CHANNELS 6 Xposition Yposition Zposition Zrotation Xrotation Yrotation
                  JOINT RightHandRing4
                  {
                  OFFSET -1.800 0.000 0.000
                  CHANNELS 6 Xposition Yposition Zposition Zrotation Xrotation Yrotation
                  }
                }
              }
            }
            JOINT RightHandPinky1
            {
            OFFSET -9.350 0.660 -2.720
            CHANNELS 6 Xposition Yposition Zposition Zrotation Xrotation Yrotation
              JOINT RightHandPinky2
              {
              OFFSET -1.630 0.000 0.000
              CHANNELS 6 Xposition Yposition Zposition Zrotation Xrotation Yrotation
                JOINT RightHandPinky3
                {
                OFFSET -1.710 0.000 0.000
                CHANNELS 6 Xposition Yposition Zposition Zrotation Xrotation Yrotation
                  JOINT RightHandPinky4
                  {
                  OFFSET -1.800 0.000 0.000
                  CHANNELS 6 Xposition Yposition Zposition Zrotation Xrotation Yrotation
                  }
                }
              }
            }
          }
        }
      }
    }
    JOINT Neck
    {
      OFFSET -0.000 37.329 0.000
      CHANNELS 6 Xposition Yposition Zposition Zrotation Xrotation Yrotation
      JOINT Head
      {
        OFFSET -0.000 16.849 -0.000
        CHANNELS 6 Xposition Yposition Zposition Zrotation Xrotation Yrotation
        End Site
        {
          OFFSET -0.000 0.067 -0.000
        }
      }
    }
  }
}
MOTION
Frames:	4
Frame Time:	0.0333333
40.586 29.6505 -242.234 -0.959826 2.16753 5.63889 7.4326 -8.03756 2.81553 5.41556 -0.9109 -8.88851 -8.9407e-06 -52.6 7.15256e-05 -7.18739 4.47013 0.563119 -1.19209e-05 -40.3508 -2.38419e-05 -0.537324 -5.09807 -0.213508 -7.45424 -7.66598 0.474739 0.0741402 2.72054 -8.99603 -4.47035e-06 -52.8315 9.53674e-05 8.73321 2.32592 -0.357195 2.98023e-06 -40.3328 -2.38419e-05 1.72128 -9.11051 1.22614 0 6.15367 -6.1537 -0.105278 -2.7401 -0.431628 0 37.3278 -2.38419e-05 -35.3224 1.32335e-05 -3.28875 22.7719 2.98023e-05 -2.38419e-05 14.9053 -47.9981 10.5778 23.6726 -2.38419e-05 -5.96046e-06 5.38723e-05 -1.17818e-05 -97.4709 25.6805 -7.15256e-05 0 8.85144 -0.0116928 -1.20811 0.0062 0.0497 0.0339 -31.9913 0 0 0 0.0215 0 0 -31.9913 0 0 0.022 0 0 -31.9913 0 0 0.017 0 0 0 0 -0.0068 0.0873 0.0207 -31.9913 0 0 0 0.0267 0 -56.8733 0 0 0 0.0213 0 -63.9825 0 0 0 0.018 0 0 0 0 -0.0067 0.0922 0.0055 -31.9913 0 0 0 0.0266 0 -56.8733 0 0 0 0.0228 0 -63.9825 0 0 0 0.015 0 0 0 0 -0.0067 0.0925 -0.0113 -31.9913 0 0 0 0.0247 0 -56.8733 0 0 0 0.0221 0 -63.9825 0 0 0 0.018 0 0 0 0 -0.0066 0.0935 -0.0272 -31.9913 0 0 0 0.0163 0 -56.8733 0 0 0 0.0171 0 -63.9825 0 0 0 0.018 0 0 0 0 0 37.3278 -2.38419e-05 37.0899 -4.48231e-06 3.49001 -21.4601 -1.49012e-06 0 27.4901 22.8802 10.6013 -26.5054 0 -1.19209e-05 6.6644e-05 1.85205e-05 100.231 -29.3665 0 -2.38419e-05 16.2616 -0.0175148 2.72454 -0.0062 0.0497 0.0339 1.61149e-43 0 0 0 0.0215 0 0 -1.61149e-43 0 0 0.022 0 0 -1.61149e-43 0 0 0.017 0 0 0 0 0.0068 0.0873 0.0207 1.61149e-43 0 0 0 0.0267 0 3.20897e-43 0 0 0 0.0213 0 4.00771e-43 0 0 0 0.018 0 0 0 0 0.0067 0.0922 0.0055 1.61149e-43 0 0 0 0.0266 0 3.20897e-43 0 0 0 0.0228 0 4.00771e-43 0 0 0 0.015 0 0 0 0 0.0067 0.0925 -0.0113 1.61149e-43 0 0 0 0.0247 0 3.20897e-43 0 0 0 0.0221 0 4.00771e-43 0 0 0 0.018 0 0 0 0 0.0066 0.0935 -0.0272 1.61149e-43 0 0 0 0.0163 0 3.20897e-43 0 0 0 0.0171 0 4.00771e-43 0 0 0 0.018 0 0 0 0 0 37.3278 -2.38419e-05 0.0384466 10.2484 -0.00683985 1.19209e-05 17.268 0 9.97848e-06 -6.83019e-06 -8.53774e-07 
40.7983 29.3875 -242.799 -0.768286 2.14152 6.50214 7.42199 -8.01271 2.76144 5.15888 -1.81459 -8.55505 -1.49012e-05 -52.4895 -4.76837e-05 -7.54103 5.6815 0.750848 -1.49012e-05 -40.2874 -2.38419e-05 -1.28717 -5.29711 -0.695419 -7.42684 -7.65296 0.486779 0.047869 3.15882 -8.77358 0 -52.9383 4.76837e-05 8.68932 1.23751 -0.189114 -5.96046e-06 -40.0782 0 0.941977 -9.117 0.713764 0 6.13802 -6.13801 -0.0573118 -2.67364 -0.449932 -2.38419e-05 37.3278 0 -35.2478 1.02453e-05 -2.9948 22.7375 2.38419e-05 4.76837e-05 15.0956 -47.3159 11.5985 23.5725 9.53674e-05 -1.19209e-05 7.17121e-05 -3.21111e-06 -98.2747 26.3629 -4.76837e-05 -5.96046e-06 9.29468 -0.0114132 -1.18629 0.0062 0.0497 0.0339 -38.0879 0 0 0 0.0215 0 0 -38.0879 0 0 0.022 0 0 -38.0879 0 0 0.017 0 0 0 0 -0.0068 0.0873 0.0207 -38.0879 0 0 0 0.0267 0 -67.7117 0 0 0 0.0213 0 -76.1757 0 0 0 0.018 0 0 0 0 -0.0067 0.0922 0.0055 -38.0879 0 0 0 0.0266 0 -67.7117 0 0 0 0.0228 0 -76.1757 0 0 0 0.015 0 0 0 0 -0.0067 0.0925 -0.0113 -38.0879 0 0 0 0.0247 0 -67.7117 0 0 0 0.0221 0 -76.1757 0 0 0 0.018 0 0 0 0 -0.0066 0.0935 -0.0272 -38.0879 0 0 0 0.0163 0 -67.7117 0 0 0 0.0171 0 -76.1757 0 0 0 0.018 0 0 0 0 -2.38419e-05 37.3278 0 36.9632 -3.20165e-06 3.18546 -21.3778 -7.45058e-06 0 27.3927 22.5934 10.8456 -26.5593 0 0 2.6364e-05 1.09633e-05 99.9748 -29.0514 -1.19209e-05 1.19209e-05 16.5144 -0.0131247 2.87978 -0.0062 0.0497 0.0339 1.61149e-43 0 0 0 0.0215 0 0 -1.61149e-43 0 0 0.022 0 0 -1.61149e-43 0 0 0.017 0 0 0 0 0.0068 0.0873 0.0207 1.61149e-43 0 0 0 0.0267 0 3.20897e-43 0 0 0 0.0213 0 4.00771e-43 0 0 0 0.018 0 0 0 0 0.0067 0.0922 0.0055 1.61149e-43 0 0 0 0.0266 0 3.20897e-43 0 0 0 0.0228 0 4.00771e-43 0 0 0 0.015 0 0 0 0 0.0067 0.0925 -0.0113 1.61149e-43 0 0 0 0.0247 0 3.20897e-43 0 0 0 0.0221 0 4.00771e-43 0 0 0 0.018 0 0 0 0 0.0066 0.0935 -0.0272 1.61149e-43 0 0 0 0.0163 0 3.20897e-43 0 0 0 0.0171 0 4.00771e-43 0 0 0 0.018 0 0 0 0 -2.38419e-05 37.3278 0 -0.178013 10.1398 0.0313424 0 17.3172 -4.76837e-05 9.71167e-06 -1.19528e-05 4.26887e-07 
40.9572 29.163 -243.496 -0.576539 2.30169 7.40405 7.40567 -7.98126 2.72207 4.87019 -3.03906 -8.34517 -1.49012e-05 -52.3998 0 -7.87914 6.97871 0.963311 -5.96046e-06 -40.2656 -7.15256e-05 -2.00331 -5.56211 -1.17135 -7.39712 -7.64832 0.475264 -0.0230646 3.26135 -8.68715 1.49012e-05 -52.8978 -2.38419e-05 8.64487 0.175461 -0.0266769 -2.98023e-06 -40.0541 -4.76837e-05 0.0452348 -9.19951 0.116047 -1.19209e-05 6.10872 -6.10869 -0.0310642 -2.58746 -0.459485 1.78814e-05 37.3278 -2.38419e-05 -35.3091 1.06722e-05 -2.70677 22.7565 1.19209e-05 -2.38419e-05 15.0347 -47.6295 11.7959 23.4684 2.38419e-05 1.19209e-05 8.1079e-05 -1.16257e-05 -98.6892 26.7525 -2.38419e-05 0 9.71557 -0.0104091 -1.10675 0.0062 0.0497 0.0339 -42.6482 0 0 0 0.0215 0 0 -42.6482 0 0 0.022 0 0 -42.6482 0 0 0.017 0 0 0 0 -0.0068 0.0873 0.0207 -42.6482 0 0 0 0.0267 0 -75.819 0 0 0 0.0213 0 -85.2964 0 0 0 0.018 0 0 0 0 -0.0067 0.0922 0.0055 -42.6482 0 0 0 0.0266 0 -75.819 0 0 0 0.0228 0 -85.2964 0 0 0 0.015 0 0 0 0 -0.0067 0.0925 -0.0113 -42.6482 0 0 0 0.0247 0 -75.819 0 0 0 0.0221 0 -85.2964 0 0 0 0.018 0 0 0 0 -0.0066 0.0935 -0.0272 -42.6482 0 0 0 0.0163 0 -75.819 0 0 0 0.0171 0 -85.2964 0 0 0 0.018 0 0 0 0 1.78814e-05 37.3278 -2.38419e-05 37.0224 -2.13443e-06 2.88365 -21.3616 1.49012e-06 4.76837e-05 27.1063 22.0115 11.1349 -26.5571 1.19209e-05 -2.38419e-05 2.61877e-05 1.3157e-05 99.8445 -28.9102 -1.19209e-05 0 16.5809 -0.0117935 3.06929 -0.0062 0.0497 0.0339 1.61149e-43 0 0 0 0.0215 0 0 -1.61149e-43 0 0 0.022 0 0 -1.61149e-43 0 0 0.017 0 0 0 0 0.0068 0.0873 0.0207 1.61149e-43 0 0 0 0.0267 0 3.20897e-43 0 0 0 0.0213 0 4.00771e-43 0 0 0 0.018 0 0 0 0 0.0067 0.0922 0.0055 1.61149e-43 0 0 0 0.0266 0 3.20897e-43 0 0 0 0.0228 0 4.00771e-43 0 0 0 0.015 0 0 0 0 0.0067 0.0925 -0.0113 1.61149e-43 0 0 0 0.0247 0 3.20897e-43 0 0 0 0.0221 0 4.00771e-43 0 0 0 0.018 0 0 0 0 0.0066 0.0935 -0.0272 1.61149e-43 0 0 0 0.0163 0 3.20897e-43 0 0 0 0.0171 0 4.00771e-43 0 0 0 0.018 0 0 0 0 1.78814e-05 37.3278 -2.38419e-05 -0.410217 9.94643 0.0708568 -5.96046e-06 17.2723 -2.38419e-05 9.49823e-06 -1.02453e-05 8.53774e-07 
41.1169 28.7497 -244.381 -0.362814 2.91644 8.50026 7.445 -7.96722 2.6438 4.35078 -5.00356 -7.53179 -1.19209e-05 -52.0858 0.000119209 -7.98782 8.66648 1.2113 0 -40.2469 -2.38419e-05 -2.83875 -5.88159 -1.73091 -7.41097 -7.63503 0.553417 -0.293949 2.82261 -8.04672 1.19209e-05 -52.5789 -4.76837e-05 8.65797 -0.839055 0.127759 -2.98023e-06 -39.9725 9.53674e-05 -0.935678 -9.21243 -0.54259 5.96046e-06 6.10661 -6.10662 -0.0290347 -2.7227 -0.541652 0 37.3278 0 -35.051 1.15259e-05 -2.59352 22.7226 -1.19209e-05 2.38419e-05 14.4861 -47.8344 11.7557 23.381 -2.38419e-05 -1.19209e-05 -7.16698e-05 3.48941e-06 -98.9976 27.1061 4.76837e-05 2.98023e-05 10.0904 -0.00740976 -0.930268 0.0062 0.0497 0.0339 -45 0 0 0 0.0215 0 0 -45 0 0 0.022 0 0 -45 0 0 0.017 0 0 0 0 -0.0068 0.0873 0.0207 -45 0 0 0 0.0267 0 -80 0 0 0 0.0213 0 -90 0 0 0 0.018 0 0 0 0 -0.0067 0.0922 0.0055 -45 0 0 0 0.0266 0 -80 0 0 0 0.0228 0 -90 0 0 0 0.015 0 0 0 0 -0.0067 0.0925 -0.0113 -45 0 0 0 0.0247 0 -80 0 0 0 0.0221 0 -90 0 0 0 0.018 0 0 0 0 -0.0066 0.0935 -0.0272 -45 0 0 0 0.0163 0 -80 0 0 0 0.0171 0 -90 0 0 0 0.018 0 0 0 0 0 37.3278 0 36.7254 -4.69576e-06 2.77488 -21.2384 2.98023e-06 -7.15256e-05 27.1456 21.0609 11.2375 -26.5842 -1.19209e-05 1.19209e-05 1.27249e-05 1.0842e-05 99.8633 -28.8715 4.76837e-05 -2.38419e-05 16.627 -0.00644309 3.37399 -0.0062 0.0497 0.0339 1.61149e-43 0 0 0 0.0215 0 0 -1.61149e-43 0 0 0.022 0 0 -1.61149e-43 0 0 0.017 0 0 0 0 0.0068 0.0873 0.0207 1.61149e-43 0 0 0 0.0267 0 3.20897e-43 0 0 0 0.0213 0 4.00771e-43 0 0 0 0.018 0 0 0 0 0.0067 0.0922 0.0055 1.61149e-43 0 0 0 0.0266 0 3.20897e-43 0 0 0 0.0228 0 4.00771e-43 0 0 0 0.015 0 0 0 0 0.0067 0.0925 -0.0113 1.61149e-43 0 0 0 0.0247 0 3.20897e-43 0 0 0 0.0221 0 4.00771e-43 0 0 0 0.018 0 0 0 0 0.0066 0.0935 -0.0272 1.61149e-43 0 0 0 0.0163 0 3.20897e-43 0 0 0 0.0171 0 4.00771e-43 0 0 0 0.018 0 0 0 0 0 37.3278 0 -0.739681 9.4824 0.121863 -5.96046e-06 17.3575 -2.38419e-05 1.00318e-05 -1.19528e-05 -1.70755e-06 
